<?xml version="1.0" standalone="no"?><svg data-noselect="" 
  viewBox="139.40315167433 66.28981378757001 600.1608403924299 450" 
  width="600.1608403924299" 
  height="450" 
  ref="svg_canvas" 
  preserveAspectRatio="none" 
  version="1.1" xmlns="http://www.w3.org/2000/svg" 
  style="background: rgb(8, 14, 58);">
    <defs></defs>
    <g id="shape_xlk3uBn13J" class=""  ref="shape_xlk3uBn13J" key="shape_xlk3uBn13J" transform="translate(219.40315167433,181.51529816313) rotate(0,103.90697113773,108.24235091844) scale(1,1)" style="cursor:move;display:inline;opacity:1;" filter="">
            <g style="display:inline"><rect fill="rgba(0,0,0,0)" width="227.81394227545007" height="236.48470183687448" x="-10" y="-10"></rect><svg version="1.1" id="图层_1" xmlns="http://www.w3.org/2000/svg" xmlns:xlink="http://www.w3.org/1999/xlink" x="0px" y="0px" width="207.81394227545007" height="216.48470183687448" viewBox="0 0 146.2 152.3" enable-background="new 0 0 146.2 152.3" xml:space="preserve" class="style-removed" preserveAspectRatio="none" data-parent="shape_xlk3uBn13J">
<g>
	<g>
		<path fill="#FAEB3A" d="M93.2,0.7c-9.1-2.3-18.5,1.6-23.3,9.6c-1.1,0.2-2.1,0.8-2.7,1.8v0c-0.8,1.3-0.6,2.9,0.2,4
			c-0.9,3.7-0.8,7.4,0.2,11c-0.6,0.3-1.1,0.8-1.4,1.4c-0.7,1.3-0.6,2.8,0.2,4l-5.1,11.3c1.1,0.2,2.2,0.6,3.1,1.1l4.7-10.4L86,44.1
			l-12.7,19c1.1,0.3,2.2,0.6,3.3,0.9l4.9-7.4l1.8-2.8l5.6-8.4c0.2,0,0.3,0.1,0.5,0.1c1.3,0,2.5-0.7,3.2-1.8c0.3-0.6,0.5-1.2,0.5-1.9
			c3.6-0.9,6.9-2.8,9.6-5.4c0.1,0,0.2,0,0.4,0c0.3,0,0.6,0,1-0.1c1-0.3,1.8-0.9,2.2-1.7c0.6-1,0.6-2.2,0.2-3.2c0.9-1.6,1.6-3.3,2-5
			C111.5,15.1,104.6,3.5,93.2,0.7z M92.5,3.8c9.6,2.4,15.4,12.2,13,21.8c-0.3,1.2-0.7,2.4-1.3,3.5l-31-17.9
			C77.3,4.9,85,1.9,92.5,3.8z M89.9,42c-0.1,0.2-0.4,0.3-0.6,0.2l-20-11.5c-0.2-0.1-0.3-0.4-0.2-0.6c0.1-0.1,0.2-0.2,0.3-0.2
			c0,0,0.1,0,0.1,0c0.1,0,0.2,0,0.2,0.1l20,11.5C89.9,41.5,90,41.8,89.9,42z M91.6,38.8c-0.1-0.1-0.2-0.1-0.3-0.2l-20-11.5
			C71.2,27,71.1,27,71,26.9c-1-2.9-1.2-5.9-0.7-8.8L99.6,35C97.3,36.9,94.5,38.2,91.6,38.8z M103.5,33c-0.1,0.1-0.2,0.2-0.3,0.2
			c-0.1,0-0.2,0-0.4,0L70.2,14.3c-0.2-0.1-0.3-0.4-0.2-0.6c0.1-0.2,0.4-0.3,0.6-0.2l32.7,18.9C103.6,32.5,103.7,32.8,103.5,33z" stroke-width="0"></path>
		<path fill="#FAEB3A" d="M77.4,9.7l2,2.5c7-5.7,13.4-2.8,13.6-2.7l1.4-2.9C94.1,6.4,86,2.7,77.4,9.7z" stroke-width="0"></path>
		<path fill="#FAEB3A" d="M44.9,105.9l-6.2-3.4L51.9,73l-2.9-1.3l-6.1,13.7l-1.4,3L34.5,104l1,0.5l-3.4,7.1l7.9,5l4.8-7l1.1,0.6
			l11-16.5l1.8-2.7l2.9-4.4c-0.9-0.6-1.8-1.2-2.7-1.8L44.9,105.9z M39.1,112.2l-2.8-1.8l2.1-4.3l3.6,2L39.1,112.2z" stroke-width="0"></path>
	</g>
	<g>
		<path fill="#EF2BD5" d="M8.8,75.4c-0.1,1.2-0.1,2.5-0.1,3.7c0,1.9,0.1,3.8,0.2,5.6c1.4,16,8.7,30.9,20.6,41.8
			c11.9,11,27.5,17.1,43.7,17.1v-3.2c-31.5,0-58.3-24.6-61-55.9c-0.2-1.8-0.2-3.6-0.2-5.4c0-0.9,0-1.9,0.1-2.8L8.8,75.4z" stroke-width="0"></path>
		<path fill="#EF2BD5" d="M116.7,20.2l-1.9,2.6c16.6,12.3,26.9,31,28.2,51.5l3.2-0.2C144.8,52.7,134,33,116.7,20.2z" stroke-width="0"></path>
		<path fill="#EF2BD5" d="M60.2,19.2l-0.7-3.2c-17,3.7-32,14.3-41.2,29.1l3.2,1C30.3,32.5,44.3,22.7,60.2,19.2z" stroke-width="0"></path>
		<path fill="#EF2BD5" d="M115.2,30.2l-2.1,2.4c10.5,9,17.7,21.5,20.3,35.1l3.2-0.6C133.9,52.8,126.3,39.7,115.2,30.2z" stroke-width="0"></path>
		<path fill="#EF2BD5" d="M73.2,149.1c-38.6,0-70-31.4-70-70c0-1.7,0.1-3.4,0.2-5.1c0.1-1.1,0.2-2.2,0.3-3.3
			c1.1-8.6,3.7-16.9,7.7-24.3c0.5-1,1.1-1.9,1.6-2.9C23.5,26,41.4,13.2,62.6,9.9l-0.5-3.2C45,9.4,29.3,18,17.9,31.2
			C6.3,44.5,0,61.5,0,79.1c0,40.4,32.8,73.2,73.2,73.2c6.2,0,12.4-0.8,18.3-2.3l-0.8-3.1C85,148.3,79.1,149.1,73.2,149.1z" stroke-width="0"></path>
	</g>
	<g>
		<path fill="#FFFFFF" d="M103.3,61.6l-19.9-7.7l-1.8,2.8l20.7,8c1.3,0.4,2,1.7,1.7,3c-0.3,1.3-1.6,2.1-2.8,1.9l-20.3-3.8
			c-1.3-0.7-2.7-1.2-4.2-1.7c-1.1-0.4-2.2-0.7-3.3-0.9c-2-0.5-3.9-0.8-5.2-1c0-1.1,0.2-2.3,0.5-3.4c1.4-4.6,0.9-8.9-1.4-11.6
			c-0.8-0.9-1.7-1.7-2.9-2.3c-0.9-0.5-1.9-0.8-3.1-1.1c-1.7-0.4-3.7-0.4-6-0.2c-8.2,0.8-14.3,3.2-18.7,7.5l-15.1-4.8l-3.2-1
			l-5.3-1.7c-0.6,0.9-1.1,1.9-1.6,2.9l22.9,7.3c-0.7,1-1.4,2-2,3.1l2.8,1.6c2.6-4.8,7.3-10.4,20.6-11.7c4.4-0.4,7.5,0.4,9.1,2.4
			c1.6,1.9,1.9,5.2,0.8,8.7c-1.4,4.5-0.4,9.5,0.4,12.1c-2.9,0-5-0.9-6.4-2.6c-3-3.7-1.6-10.2-1.6-10.2l-3.1-0.8
			c-2.6,7.9-5.6,10.5-7.6,11.3c-2.2,0.8-3.9-0.1-3.9-0.2l-1.7,2.7c0.1,0.1,3,1.8,6.7,0.5c2.5-0.9,4.7-3,6.6-6.2
			c0.4,1.7,1.1,3.4,2.2,4.9c0.4,0.5,0.8,0.9,1.3,1.3c-1.1,0-2.3,0.2-3.3,0.7c-1.3,0.7-2.3,1.7-2.8,3.2c-1.2,3.6,2.2,7.2,6.7,10.3
			c0.9,0.6,1.8,1.2,2.7,1.8c2.4,1.5,5,2.8,7.2,4c1.6,0.9,3,1.2,4.3,1.3c2.3,1,6.8,3.5,7.6,5.6c0.1,0.4,0.1,0.6,0,1
			c0,0.1-0.1,0.2-0.5,0.4c-3.5,1.1-14.4-3.9-21.4-7.8l-1.8,2.7c4.1,2.3,15.8,8.4,22.2,8.4c0.7,0,1.4-0.1,1.9-0.2
			c1.4-0.4,2.2-1.3,2.5-2c0.6-1.1,0.6-2.3,0.2-3.5c-0.9-2.4-3.8-4.5-6.1-5.8c1.6-1.2,2.7-3,3.4-4.2l0.3-0.5c1.2-2,1-4.1,0.5-5.6
			c0.9-0.5,1.8-1.1,2.4-2c1.7-2.1,2.2-5,1.5-7.8c-0.1-0.2-0.1-0.4-0.2-0.6l15.1,2.8c0.3,0.1,0.6,0.1,1,0.1c2.6,0,4.9-1.8,5.6-4.3
			C107.8,65.5,106.1,62.5,103.3,61.6z M78.4,84.2l-0.3,0.5c-2,3.3-3.6,5.3-7.8,3c-4.4-2.4-16.1-8.6-14.9-12.1c0.2-0.6,0.6-1,1.1-1.3
			c1.8-0.9,5.1-0.1,6.4,0.3c4.1,3.4,11.8,6.4,15.3,6.5c0.1,0,0.2,0,0.2,0c0,0,0.1,0,0.1,0C78.8,81.8,79.1,83.1,78.4,84.2z
			 M81.6,76.3C81,77,80,77.8,78.3,77.8c-3.1-0.1-8.7-2.6-12.1-4.7c0.9-0.1,1.7-0.5,2.3-1.3c0.6-0.8,0.8-1.9,0.5-2.9
			c-0.3-0.9-0.5-2.1-0.7-3.5c5.9,1,13.5,3.3,14.2,5.9C83,73.1,82.6,75,81.6,76.3z" stroke-width="0"></path>
		<path fill="#FFFFFF" d="M29.7,73.2L26.6,74c0.3,1.1,0.6,2.2,1,3.1L3.8,70.7c-0.1,1.1-0.2,2.2-0.3,3.3l5.4,1.4l3.2,0.9L29.6,81
			c3.6,5.2,8.8,6.9,11.8,7.4l1.4-3C39.9,85,32,83.2,29.7,73.2z" stroke-width="0"></path>
		
			<rect x="18.4" y="46.7" transform="matrix(0.3011 -0.9536 0.9536 0.3011 -38.3391 57.3731)" fill="#FFFFFF" width="3.2" height="16.3" stroke-width="0"></rect>
	</g>
</g>
</svg></g>
        </g><g id="shape_XOxiZkzeDD" class="brand_slogan"  ref="shape_XOxiZkzeDD" key="shape_XOxiZkzeDD" transform="translate(330.35399206676004,213.91764908155997) rotate(0,134.61007943564,87.34) scale(1,1)" style="cursor:move;display:inline;opacity:1;" filter="">
            <g style="display:inline"><svg xmlns="http://www.w3.org/2000/svg" version="1.1" xmlns:xlink="http://www.w3.org/1999/xlink" width="401.84" height="174.68" viewBox="0 0 401.84 174.68" preserveAspectRatio="none" data-parent="shape_XOxiZkzeDD"><rect fill="rgba(0,0,0,0)" width="305" height="29" x="24.21" y="72.84"></rect><g data-width="304.36812000000003" transform="translate(24.21, 0)"><path d="M11.96-9.73Q13.27-9.73 14.38-9.08Q15.49-8.43 16.15-7.31Q16.80-6.20 16.80-4.87L16.80-4.87Q16.80-3.53 16.15-2.42Q15.49-1.31 14.38-0.65Q13.27 0 11.96 0L11.96 0L1.50 0L1.50-2.61L10.65-2.61Q11.60-2.61 12.26-3.27Q12.93-3.92 12.93-4.87L12.93-4.87Q12.93-5.81 12.26-6.46Q11.60-7.12 10.65-7.12L10.65-7.12L5.59-7.12Q4.29-7.12 3.20-7.76Q2.11-8.40 1.46-9.50Q0.82-10.60 0.82-11.89L0.82-11.89Q0.82-13.19 1.46-14.28Q2.11-15.37 3.20-16.01Q4.29-16.66 5.59-16.66L5.59-16.66L15.83-16.66L15.83-14.07L6.88-14.07Q5.98-14.07 5.34-13.42Q4.70-12.78 4.70-11.89L4.70-11.89Q4.70-10.99 5.34-10.36Q5.98-9.73 6.88-9.73L6.88-9.73L11.96-9.73Z" transform="translate(0 96.84) skewX(-14)" fill="#faeb3a" stroke="#faeb3a" stroke-width="0.04" data-glyph-w="17.62488" data-glyph-h="29.052000000000003" data-glyph-ascender="24.21" data-glyph-descender="-4.8420000000000005"></path><path d="M20.46-5.37L24.57-16.68L28.47-16.68L22.42 0L18.52 0L14.40-11.33L10.29 0L6.42 0L0.36-16.68L4.26-16.68L8.35-5.37L12.47-16.68L16.37-16.68L20.46-5.37Z" transform="translate(17.62488 96.84) skewX(-14)" fill="#faeb3a" stroke="#faeb3a" stroke-width="0.04" data-glyph-w="28.834110000000003" data-glyph-h="29.052000000000003" data-glyph-ascender="24.21" data-glyph-descender="-4.8420000000000005"></path><path d="M7.97-14.07Q7.14-14.07 6.43-13.65Q5.71-13.24 5.29-12.53Q4.87-11.81 4.87-10.97L4.87-10.97L4.87-9.64L16.97-9.64L16.97-7.05L4.87-7.05L4.87-5.71Q4.87-4.87 5.29-4.15Q5.71-3.44 6.43-3.03Q7.14-2.61 7.97-2.61L7.97-2.61L16.97-2.61L16.97 0L6.68 0Q5.13 0 3.83-0.77Q2.52-1.55 1.76-2.86Q0.99-4.16 0.99-5.71L0.99-5.71L0.99-10.97Q0.99-12.52 1.76-13.82Q2.52-15.13 3.83-15.89Q5.13-16.66 6.68-16.66L6.68-16.66L16.97-16.66L16.97-14.07L7.97-14.07Z" transform="translate(46.45899 96.84) skewX(-14)" fill="#faeb3a" stroke="#faeb3a" stroke-width="0.04" data-glyph-w="17.963820000000002" data-glyph-h="29.052000000000003" data-glyph-ascender="24.21" data-glyph-descender="-4.8420000000000005"></path><path d="M7.97-14.07Q7.14-14.07 6.43-13.65Q5.71-13.24 5.29-12.53Q4.87-11.81 4.87-10.97L4.87-10.97L4.87-9.64L16.97-9.64L16.97-7.05L4.87-7.05L4.87-5.71Q4.87-4.87 5.29-4.15Q5.71-3.44 6.43-3.03Q7.14-2.61 7.97-2.61L7.97-2.61L16.97-2.61L16.97 0L6.68 0Q5.13 0 3.83-0.77Q2.52-1.55 1.76-2.86Q0.99-4.16 0.99-5.71L0.99-5.71L0.99-10.97Q0.99-12.52 1.76-13.82Q2.52-15.13 3.83-15.89Q5.13-16.66 6.68-16.66L6.68-16.66L16.97-16.66L16.97-14.07L7.97-14.07Z" transform="translate(64.42281 96.84) skewX(-14)" fill="#faeb3a" stroke="#faeb3a" stroke-width="0.04" data-glyph-w="17.963820000000002" data-glyph-h="29.052000000000003" data-glyph-ascender="24.21" data-glyph-descender="-4.8420000000000005"></path><path d="M0.27-16.68L16.27-16.68L16.27-14.07L10.22-14.07L10.22 0L6.32 0L6.32-14.07L0.27-14.07L0.27-16.68Z" transform="translate(82.38663 96.84) skewX(-14)" fill="#faeb3a" stroke="#faeb3a" stroke-width="0.04" data-glyph-w="16.53543" data-glyph-h="29.052000000000003" data-glyph-ascender="24.21" data-glyph-descender="-4.8420000000000005"></path><path d="" transform="translate(98.92206 96.84) skewX(-14)" fill="#faeb3a" stroke="#faeb3a" stroke-width="0.04" data-glyph-w="9.635580000000001" data-glyph-h="24.21" data-glyph-ascender="21.304800000000004" data-glyph-descender="-2.9052000000000002"></path><path d="M11.98-16.66Q13.46-16.66 14.71-15.93Q15.95-15.20 16.68-13.97Q17.41-12.73 17.41-11.26L17.41-11.26Q17.41-9.78 16.68-8.53Q15.95-7.29 14.71-6.56Q13.46-5.83 11.98-5.83L11.98-5.83L4.87-5.83L4.87 0L0.99 0L0.99-16.66L11.98-16.66ZM10.70-8.43Q11.86-8.43 12.69-9.25Q13.51-10.07 13.51-11.26L13.51-11.26Q13.51-12.42 12.69-13.24Q11.86-14.07 10.70-14.07L10.70-14.07L4.87-14.07L4.87-8.43L10.70-8.43Z" transform="translate(108.55764 96.84) skewX(-14)" fill="#faeb3a" stroke="#faeb3a" stroke-width="0.04" data-glyph-w="18.205920000000003" data-glyph-h="29.052000000000003" data-glyph-ascender="24.21" data-glyph-descender="-4.8420000000000005"></path><path d="M0.99-12.88Q0.99-13.90 1.50-14.77Q2.01-15.64 2.88-16.15Q3.75-16.66 4.77-16.66L4.77-16.66L13.17-16.66Q14.21-16.66 15.08-16.15Q15.95-15.64 16.46-14.77Q16.97-13.90 16.97-12.88L16.97-12.88L16.97-3.80Q16.97-2.78 16.46-1.90Q15.95-1.02 15.08-0.51Q14.21 0 13.17 0L13.17 0L4.77 0Q3.75 0 2.88-0.52Q2.01-1.04 1.50-1.91Q0.99-2.78 0.99-3.80L0.99-3.80L0.99-12.88ZM11.14-2.61Q11.94-2.61 12.50-3.18Q13.07-3.75 13.07-4.55L13.07-4.55L13.07-12.11Q13.07-12.93 12.50-13.50Q11.94-14.07 11.14-14.07L11.14-14.07L6.83-14.07Q6.00-14.07 5.44-13.50Q4.87-12.93 4.87-12.11L4.87-12.11L4.87-4.55Q4.87-3.75 5.44-3.18Q6.00-2.61 6.83-2.61L6.83-2.61L11.14-2.61Z" transform="translate(126.76356000000001 96.84) skewX(-14)" fill="#faeb3a" stroke="#faeb3a" stroke-width="0.04" data-glyph-w="17.963820000000002" data-glyph-h="29.052000000000003" data-glyph-ascender="24.21" data-glyph-descender="-4.8420000000000005"></path><path d="M0.27-16.68L16.27-16.68L16.27-14.07L10.22-14.07L10.22 0L6.32 0L6.32-14.07L0.27-14.07L0.27-16.68Z" transform="translate(144.72738 96.84) skewX(-14)" fill="#faeb3a" stroke="#faeb3a" stroke-width="0.04" data-glyph-w="16.53543" data-glyph-h="29.052000000000003" data-glyph-ascender="24.21" data-glyph-descender="-4.8420000000000005"></path><path d="M18.59 0L14.72 0L9.39-12.64L5.13-2.59L9.90-2.59L11.11 0L0.17 0L7.24-16.66L11.52-16.66L18.59 0Z" transform="translate(161.26281 96.84) skewX(-14)" fill="#faeb3a" stroke="#faeb3a" stroke-width="0.04" data-glyph-w="18.76275" data-glyph-h="29.052000000000003" data-glyph-ascender="24.21" data-glyph-descender="-4.8420000000000005"></path><path d="M0.27-16.68L16.27-16.68L16.27-14.07L10.22-14.07L10.22 0L6.32 0L6.32-14.07L0.27-14.07L0.27-16.68Z" transform="translate(180.02556 96.84) skewX(-14)" fill="#faeb3a" stroke="#faeb3a" stroke-width="0.04" data-glyph-w="16.53543" data-glyph-h="29.052000000000003" data-glyph-ascender="24.21" data-glyph-descender="-4.8420000000000005"></path><path d="M0.99-12.88Q0.99-13.90 1.50-14.77Q2.01-15.64 2.88-16.15Q3.75-16.66 4.77-16.66L4.77-16.66L13.17-16.66Q14.21-16.66 15.08-16.15Q15.95-15.64 16.46-14.77Q16.97-13.90 16.97-12.88L16.97-12.88L16.97-3.80Q16.97-2.78 16.46-1.90Q15.95-1.02 15.08-0.51Q14.21 0 13.17 0L13.17 0L4.77 0Q3.75 0 2.88-0.52Q2.01-1.04 1.50-1.91Q0.99-2.78 0.99-3.80L0.99-3.80L0.99-12.88ZM11.14-2.61Q11.94-2.61 12.50-3.18Q13.07-3.75 13.07-4.55L13.07-4.55L13.07-12.11Q13.07-12.93 12.50-13.50Q11.94-14.07 11.14-14.07L11.14-14.07L6.83-14.07Q6.00-14.07 5.44-13.50Q4.87-12.93 4.87-12.11L4.87-12.11L4.87-4.55Q4.87-3.75 5.44-3.18Q6.00-2.61 6.83-2.61L6.83-2.61L11.14-2.61Z" transform="translate(196.56099 96.84) skewX(-14)" fill="#faeb3a" stroke="#faeb3a" stroke-width="0.04" data-glyph-w="17.963820000000002" data-glyph-h="29.052000000000003" data-glyph-ascender="24.21" data-glyph-descender="-4.8420000000000005"></path><path d="" transform="translate(214.52481 96.84) skewX(-14)" fill="#faeb3a" stroke="#faeb3a" stroke-width="0.04" data-glyph-w="9.635580000000001" data-glyph-h="24.21" data-glyph-ascender="21.304800000000004" data-glyph-descender="-2.9052000000000002"></path><path d="M10.31-8.86L15.47-16.68L19.37-16.68L19.37 0L15.47 0L15.47-10.85L12.25-5.96L8.40-5.96L5.01-10.97L5.01 0L1.11 0L1.11-16.68L5.01-16.68L10.31-8.86Z" transform="translate(224.16039 96.84) skewX(-14)" fill="#faeb3a" stroke="#faeb3a" stroke-width="0.04" data-glyph-w="20.48166" data-glyph-h="29.052000000000003" data-glyph-ascender="24.21" data-glyph-descender="-4.8420000000000005"></path><path d="M0.99-16.66L4.89-16.66L4.89-4.55Q4.89-3.75 5.46-3.18Q6.03-2.61 6.85-2.61L6.85-2.61L11.14-2.61Q11.96-2.61 12.53-3.18Q13.10-3.75 13.10-4.55L13.10-4.55L13.10-16.66L17.00-16.66L17.00-3.80Q17.00-2.78 16.47-1.91Q15.95-1.04 15.08-0.52Q14.21 0 13.19 0L13.19 0L4.79 0Q3.75 0 2.88-0.51Q2.01-1.02 1.50-1.90Q0.99-2.78 0.99-3.80L0.99-3.80L0.99-16.66Z" transform="translate(244.64205 96.84) skewX(-14)" fill="#faeb3a" stroke="#faeb3a" stroke-width="0.04" data-glyph-w="17.988030000000002" data-glyph-h="29.052000000000003" data-glyph-ascender="24.21" data-glyph-descender="-4.8420000000000005"></path><path d="M11.96-9.73Q13.27-9.73 14.38-9.08Q15.49-8.43 16.15-7.31Q16.80-6.20 16.80-4.87L16.80-4.87Q16.80-3.53 16.15-2.42Q15.49-1.31 14.38-0.65Q13.27 0 11.96 0L11.96 0L1.50 0L1.50-2.61L10.65-2.61Q11.60-2.61 12.26-3.27Q12.93-3.92 12.93-4.87L12.93-4.87Q12.93-5.81 12.26-6.46Q11.60-7.12 10.65-7.12L10.65-7.12L5.59-7.12Q4.29-7.12 3.20-7.76Q2.11-8.40 1.46-9.50Q0.82-10.60 0.82-11.89L0.82-11.89Q0.82-13.19 1.46-14.28Q2.11-15.37 3.20-16.01Q4.29-16.66 5.59-16.66L5.59-16.66L15.83-16.66L15.83-14.07L6.88-14.07Q5.98-14.07 5.34-13.42Q4.70-12.78 4.70-11.89L4.70-11.89Q4.70-10.99 5.34-10.36Q5.98-9.73 6.88-9.73L6.88-9.73L11.96-9.73Z" transform="translate(262.63008 96.84) skewX(-14)" fill="#faeb3a" stroke="#faeb3a" stroke-width="0.04" data-glyph-w="17.62488" data-glyph-h="29.052000000000003" data-glyph-ascender="24.21" data-glyph-descender="-4.8420000000000005"></path><path d="M5.01-16.68L5.01 0L1.14 0L1.14-16.68L5.01-16.68Z" transform="translate(280.25496000000004 96.84) skewX(-14)" fill="#faeb3a" stroke="#faeb3a" stroke-width="0.04" data-glyph-w="6.1493400000000005" data-glyph-h="29.052000000000003" data-glyph-ascender="24.21" data-glyph-descender="-4.8420000000000005"></path><path d="M16.97-2.61L16.97 0L5.93 0Q4.58 0 3.45-0.67Q2.32-1.33 1.66-2.47Q0.99-3.61 0.99-4.94L0.99-4.94L0.99-11.74Q0.99-13.07 1.66-14.20Q2.32-15.32 3.45-15.99Q4.58-16.66 5.93-16.66L5.93-16.66L16.97-16.66L16.97-14.07L7.24-14.07Q6.27-14.07 5.59-13.40Q4.91-12.73 4.91-11.74L4.91-11.74L4.91-4.94Q4.91-3.97 5.59-3.29Q6.27-2.61 7.24-2.61L7.24-2.61L16.97-2.61Z" transform="translate(286.40430000000003 96.84) skewX(-14)" fill="#faeb3a" stroke="#faeb3a" stroke-width="0.04" data-glyph-w="17.963820000000002" data-glyph-h="29.052000000000003" data-glyph-ascender="24.21" data-glyph-descender="-4.8420000000000005"></path></g></svg></g>
        </g><g id="shape_5I6e3uiSpr" class="brand_name"  ref="shape_5I6e3uiSpr" key="shape_5I6e3uiSpr" transform="translate(254.92926218762,54.82432941201) rotate(0,240.08906516755,297.74) scale(1,1)" style="cursor:move;display:inline;opacity:1;" filter="">
            <g style="display:inline"><svg xmlns="http://www.w3.org/2000/svg" version="1.1" xmlns:xlink="http://www.w3.org/1999/xlink" width="625.24" height="595.48" viewBox="0 0 625.24 595.48" preserveAspectRatio="none" data-parent="shape_5I6e3uiSpr"><rect fill="rgba(0,0,0,0)" width="300" height="97" x="81.31" y="249.24"></rect><g data-width="299.22080000000005" transform="translate(81.31, 0)"><path d="M0.41 0.49L11.22-50.33L8.62-53.18L37.24-53.18L37.48-54.72L34.80-57.81L53.34-57.81L52.69-53.18L74.32-53.18L73.26-45.45L21.63-45.45L12.68 0.49L0.41 0.49ZM47.49-38.78L54.72-38.78L55.53-44.31L65.70-44.31L64.89-38.78L72.28-38.78L71.23-31.39L63.91-31.39L59.44 0.49L49.27 0.49L53.75-31.39L46.43-31.39L47.49-38.78ZM22.60 0.49L27.08-31.39L20.65-31.39L21.71-38.78L28.05-38.78L28.87-44.31L39.03-44.31L38.22-38.78L45.05-38.78L43.99-31.39L37.24-31.39L32.77 0.49L22.60 0.49ZM47.32 0.49L41.55 0.49L46.27-28.70L52.04-28.70L47.32 0.49ZM67.57 0.49L61.88 0.49L64.64-28.70L70.33-28.70L67.57 0.49ZM20.25 0.49L14.64 0.49L20.00-28.70L25.61-28.70L20.25 0.49ZM40.33-4.23L34.96-4.23L37.73-28.70L43.18-28.70L40.33-4.23Z" transform="translate(0 325.24) " fill="#ef2bd5" stroke="#ef2bd5" stroke-width="0.136" data-glyph-w="74.80520000000001" data-glyph-h="105.703" data-glyph-ascender="81.31" data-glyph-descender="-24.393"></path><path d="M4.31-24.15L30.57-24.15L30.82-26.18L7.89-26.18L8.62-31.30L31.55-31.30L31.71-32.61L44.23-32.61L44.07-31.30L54.32-31.30L56.43-32.77L71.88-32.77L59.52-24.15L69.19-24.15L68.54-19.03L31.06-19.03L27.97-16.91L66.02-16.91L63.50 0.65L7.89 0.65L9.19-9.11L0.98-9.19L15.94-19.03L3.66-19.03L4.31-24.15ZM7.72-46.35L72.20-46.35L70.41-33.66L5.94-33.66L7.72-46.35ZM20.16-48.05L20.41-50.01L8.05-50.01L8.86-55.78L20.16-55.78L18.46-57.81L35.45-57.81L35.13-55.78L46.43-55.78L44.72-57.81L61.71-57.81L61.39-55.78L73.75-55.78L72.94-50.01L60.58-50.01L60.33-48.05L46.43-48.05L46.67-50.01L34.31-50.01L34.07-48.05L20.16-48.05ZM24.31-11.79L24.07-9.84L50.09-9.84L50.33-11.79L24.31-11.79ZM23.34-4.23L49.36-4.23L49.60-6.18L23.58-6.18L23.34-4.23ZM20.49-38.78L26.10-38.78L26.43-41.31L20.82-41.31L20.49-38.78ZM57.49-41.31L51.96-41.31L51.63-38.78L57.16-38.78L57.49-41.31ZM36.43-41.31L36.10-38.78L41.55-38.78L41.87-41.31L36.43-41.31ZM43.01-24.15L44.07-24.15L47.00-26.18L43.34-26.18L43.01-24.15Z" transform="translate(74.80520000000001 325.24) " fill="#ef2bd5" stroke="#ef2bd5" stroke-width="0.136" data-glyph-w="74.80520000000001" data-glyph-h="105.703" data-glyph-ascender="81.31" data-glyph-descender="-24.393"></path><path d="M8.78-29.19L64.40-29.19L60.41-0.65L4.80-0.65L8.78-29.19ZM44.07-43.91L59.52-43.91L56.59-39.27L71.96-39.27L70.90-31.55L2.85-31.55L3.90-39.27L19.60-39.27L17.89-43.91L33.34-43.91L35.04-39.27L41.14-39.27L44.07-43.91ZM48.22-57.81L47.65-53.91L70.98-53.91L69.85-46.18L7.97-46.18L9.11-53.91L32.20-53.91L32.36-54.72L29.76-57.81L48.22-57.81ZM23.17-21.47L22.69-17.97L47.40-17.97L47.89-21.47L23.17-21.47ZM21.30-8.37L46.02-8.37L46.51-11.79L21.79-11.79L21.30-8.37Z" transform="translate(149.61040000000003 325.24) " fill="#ef2bd5" stroke="#ef2bd5" stroke-width="0.136" data-glyph-w="74.80520000000001" data-glyph-h="105.703" data-glyph-ascender="81.31" data-glyph-descender="-24.393"></path><path d="M51.06-44.48L49.60-33.99L70.82-33.99L69.68-26.26L48.46-26.26L45.53-5.04Q45.13-2.68 43.34-1.18Q41.55 0.33 39.19 0.33L39.19 0.33L23.09 0.33L30.33-7.24L33.01-26.26L6.50-26.26L7.64-33.99L14.47-53.10L12.60-56.10L72.61-56.10L71.47-48.38L26.67-48.38L22.12-33.99L34.07-33.99L35.61-44.48L51.06-44.48ZM64.80-22.52L69.44-1.63L55.62-1.63L50.98-22.52L64.80-22.52ZM26.34-22.44L15.94-1.63L2.11-1.63L12.44-22.44L26.34-22.44Z" transform="translate(224.41560000000004 325.24) " fill="#ef2bd5" stroke="#ef2bd5" stroke-width="0.136" data-glyph-w="74.80520000000001" data-glyph-h="105.703" data-glyph-ascender="81.31" data-glyph-descender="-24.393"></path></g></svg></g>
        </g>
  </svg>